<?xml version="1.0" encoding="UTF-8"?>
<svg xmlns="http://www.w3.org/2000/svg" width="952" height="113" viewBox="0 0 952 113" fill="none">
    <path d="M0.3 3.2H48C64.5 3.2 77.6 7.95 87.3 17.45C97 26.85 101.85 39.8 101.85 56.3C101.85 73.9 97.15 87.25 87.75 96.35C78.45 105.45 65 110 47.4 110H0.3V3.2ZM32.4 30.05V83H45.3C53.2 83 59.15 80.7 63.15 76.1C67.25 71.5 69.3 65.1 69.3 56.9C69.3 48 66.9 41.3 62.1 36.8C57.4 32.3 50.75 30.05 42.15 30.05H32.4ZM205.098 3.2V29.15H148.848V42.5H199.848V67.25H148.848V82.85H206.598V110H116.598V3.2H205.098ZM346.113 3.2V110H315.363V93.95C315.363 75.05 315.763 54.8 316.563 33.2L296.463 110H272.013L251.763 33.2C252.463 49.4 252.863 68.15 252.963 89.45L253.113 110H222.363V3.2H269.313L276.213 30.95C279.813 45.85 282.563 59.35 284.463 71.45C285.963 62.85 288.963 49.1 293.463 30.2L300.063 3.2H346.113ZM460.164 3.2V110H427.464V67.85H396.564V110H363.714V3.2H396.564V39.05H427.464V3.2H460.164ZM539.182 3.2L578.482 110H545.332L540.082 94.85H505.732L500.482 110H467.332L506.782 3.2H539.182ZM532.882 71.9L527.182 53.6C525.882 49.3 524.532 43.9 523.132 37.4C521.532 43.8 520.032 49.25 518.632 53.75C517.132 58.65 515.182 64.7 512.782 71.9H532.882ZM686.134 67.85C685.234 82.05 680.134 93.05 670.834 100.85C661.634 108.65 650.234 112.55 636.634 112.55C620.534 112.55 607.584 107.2 597.784 96.5C587.984 85.8 583.084 72.4 583.084 56.3C583.084 40.4 588.084 27.15 598.084 16.55C608.184 5.85 621.234 0.499997 637.234 0.499997C650.234 0.499997 661.334 4.55 670.534 12.65C679.834 20.65 684.884 30.65 685.684 42.65H653.884C652.984 37.85 651.034 34.15 648.034 31.55C645.034 28.95 641.234 27.65 636.634 27.65C631.834 27.65 627.784 29.2 624.484 32.3C621.284 35.3 619.084 38.85 617.884 42.95C616.684 47.05 616.084 51.5 616.084 56.3C616.084 65.2 617.884 72.2 621.484 77.3C625.184 82.4 630.234 84.95 636.634 84.95C646.434 84.95 652.184 79.25 653.884 67.85H686.134ZM802.952 3.2L764.252 44.75L809.102 110H768.152L742.052 68.45L732.452 78.5V110H700.202V3.2H732.602L732.452 24.8C732.452 26.4 732.302 31.85 732.002 41.15L762.452 3.2H802.952ZM951.048 33.65H923.448C922.048 28.25 918.198 25.55 911.898 25.55C908.598 25.55 905.748 26.15 903.348 27.35C901.048 28.55 899.198 30.3 897.798 32.6C896.498 34.9 895.498 37.25 894.798 39.65C894.098 41.95 893.548 44.65 893.148 47.75C899.448 42.65 907.098 40.1 916.098 40.1C927.298 40.1 936.048 43 942.348 48.8C948.748 54.6 951.948 62.7 951.948 73.1C951.948 84.8 947.848 94.1 939.648 101C931.448 107.9 921.448 111.35 909.648 111.35C894.848 111.35 883.648 106.6 876.048 97.1C868.448 87.6 864.648 75.45 864.648 60.65C864.648 52.85 865.548 45.7 867.348 39.2C869.148 32.6 871.848 26.75 875.448 21.65C879.048 16.45 883.948 12.4 890.148 9.5C896.348 6.49999 903.498 4.99999 911.598 4.99999C921.998 4.99999 930.648 7.34999 937.548 12.05C944.448 16.75 948.948 23.95 951.048 33.65ZM919.848 63.05C917.048 60.15 913.548 58.7 909.348 58.7C905.148 58.7 901.648 60.1 898.848 62.9C896.148 65.7 894.798 69.25 894.798 73.55C894.798 77.75 896.148 81.25 898.848 84.05C901.648 86.75 905.148 88.1 909.348 88.1C913.548 88.1 917.048 86.7 919.848 83.9C922.648 81.1 924.048 77.6 924.048 73.4C924.048 69.3 922.648 65.85 919.848 63.05Z" fill="#111049" /> </svg>